<svg xmlns="http://www.w3.org/2000/svg" viewBox="0 0 655.12 632.41"><defs><style>.cls-1{fill:#f6f6f6;}.cls-2{fill:#dedc00;}</style></defs><g id="Camada_2" data-name="Camada 2"><g id="Layer_1" data-name="Layer 1"><path class="cls-1" d="M430.08,223.44Q411.74,210,393.35,196.53c-5.85-4.25-11.19-2.38-13.43,4.57-1.61,5-3.21,10-4.9,15-1,2.86-3.34,3.92-5.74,2.51-4.78-2.8-9.33-6-11.72-11.22-6.38-13.94-15.29-26.55-21.22-40.72-1.19.16-1.51,1.2-2,2-1,1.75-2,3.47-3,5.19-1.55-14.29-4.34-26.89-8.63-33.19a33.43,33.43,0,0,0-9.12-8.43,21.9,21.9,0,0,1-.17-15.33c.23-.65.52-1.3,0-2a55.56,55.56,0,0,0-21-9.84c-17-4.27-33.32-9.89-48-19.66a23.91,23.91,0,0,1-5.11-3.82c-2.61-3-3-5.93-1.22-9.49s3.63-7.05,5.41-10.59c3.5-7-.51-14-8.34-14.75-5.7-.52-11.39-1.06-17.08-1.72-2.9-.34-4.24-2.32-3.74-5.18a17.36,17.36,0,0,1,.72-2.4q3.3-10.45,6.62-20.92h-2.29a4.69,4.69,0,0,1-1.16,1.94Q208,32.67,197.63,46.82c-3.25,4.47-1.85,8.87,3.36,10.62,3.9,1.31,7.83,2.52,11.74,3.8,3.21,1,3.8,2.89,2.08,5.74a23,23,0,0,1-10.91,9.73,211.28,211.28,0,0,0-26.2,13.52,101.56,101.56,0,0,1-27.16,11.24c-6.56,1.72-13.11,3.5-19.5,5.79a1.32,1.32,0,0,0-.74.83c-1.39,4.74-4.05,8.88-6.26,13.22a9.16,9.16,0,0,0,.2,9c1,1.84,2.06,3.65,3.13,5.45a92.34,92.34,0,0,0-14.55,14.81c-2.41-3.89-4.74-7.82-6.95-11.84-.42-.76-.74-1.72-1.85-1.81-1.26,4.16-2.69,8.27-3.74,12.48-3.23,13-7.86,25.34-15.1,36.65a25.9,25.9,0,0,1-3.44,4.55c-3.66,3.63-7.5,4.25-12.08,1.94s-9.09-4.7-13.68-6.93a12.11,12.11,0,0,0-17.64,9.77c-.79,7.2-1.48,14.42-2.22,21.63-.42,4.17-3.37,6.19-7.41,5-2.85-.86-5.66-1.82-8.49-2.73-5.95-1.93-11.9-3.84-17.85-5.78-.84-.27-1.66-.5-2.19.48s.22,1.54.89,2.07c.35.28.72.55,1.09.82l36.23,26.53c5.55,4.06,11.12,2.19,13.23-4.42,1.63-5.08,3.27-10.16,5-15.21,1-3,3.48-3.89,6.15-2.35A29.92,29.92,0,0,1,75.51,235a269.11,269.11,0,0,0,12.73,23.81c1.73,3,3.28,6,4.74,9.14,4.08,8.68,6,18.06,8.7,27.19a85.1,85.1,0,0,0,7.24,18.24c6,10.57,15.87,15.7,26.86,19.25,8.34,2.7,16.95,4.51,25.23,7.43a94,94,0,0,1,24.41,12.84c5.08,3.72,5.76,8.11,2.94,13.69-2.24,4.42-4.56,8.81-6.73,13.27a12.12,12.12,0,0,0,9.54,17.47c7.2.84,14.42,1.52,21.63,2.23,4.59.45,6.57,3.37,5.15,7.8-2,6.17-4,12.32-6,18.48-.78,2.39-1.58,4.77-2.34,7.17-.3.93-.79,2.05.43,2.63s1.7-.59,2.31-1.33c.1-.12.18-.25.27-.37q13.26-18.12,26.5-36.24c4.36-6,2.58-11.38-4.47-13.64-4.93-1.58-9.87-3.16-14.79-4.79-2.94-1-4.1-3.45-2.69-5.89,3-5.17,6.67-9.65,12.24-12.29,8.34-4,16.49-8.3,24.41-13.07a102.63,102.63,0,0,1,27.64-11.28c5.68-1.46,11.31-3.14,16.9-4.94,14.75-4.73,24.56-14.35,29.24-29.13,1.47-4.65,3-9.28,4.18-14a116.3,116.3,0,0,1,14.52-34.91,27.23,27.23,0,0,1,3.38-4.6c3.68-3.78,7.56-4.45,12.24-2.1s9.08,4.69,13.68,6.93a12.16,12.16,0,0,0,17.7-10c.69-6.91,1.36-13.82,2.14-20.72.61-5.45,3.2-7,8.5-5.31,8.2,2.65,16.4,5.29,24.59,8a3.44,3.44,0,0,0,3.24-.08V225A17.2,17.2,0,0,0,430.08,223.44Z"/><path class="cls-1" d="M633,206.84q-18.35-13.47-36.73-26.91c-5.85-4.25-11.19-2.37-13.43,4.57-1.61,5-3.22,10-4.9,15-1,2.87-3.34,3.92-5.74,2.52-4.78-2.81-9.33-6-11.72-11.22-6.38-13.94-15.29-26.55-21.22-40.72-1.19.16-1.51,1.2-2,2q-1.47,2.61-3,5.19c-1.55-14.29-4.34-26.9-8.63-33.2a33.7,33.7,0,0,0-9.12-8.42,21.92,21.92,0,0,1-.17-15.34c.22-.64.52-1.29,0-1.95a55.63,55.63,0,0,0-21-9.84c-17-4.28-33.32-9.89-48-19.66A24,24,0,0,1,442.34,65c-2.61-3-3-5.92-1.23-9.48s3.64-7.05,5.42-10.6c3.5-7-.52-14-8.34-14.74-5.7-.52-11.4-1.06-17.08-1.73-2.9-.34-4.24-2.31-3.75-5.17a20.79,20.79,0,0,1,.72-2.41L424.71,0h-2.3a4.45,4.45,0,0,1-1.16,1.93c-6.88,9.43-13.8,18.85-20.66,28.29-3.26,4.48-1.85,8.87,3.35,10.62,3.9,1.31,7.84,2.52,11.75,3.8,3.2,1,3.8,2.9,2.08,5.75a23.14,23.14,0,0,1-10.91,9.73,207.9,207.9,0,0,0-26.2,13.52,101.49,101.49,0,0,1-27.17,11.24c-6.55,1.72-13.1,3.5-19.49,5.79a1.34,1.34,0,0,0-.75.83c-1.38,4.74-4,8.87-6.26,13.22a9.19,9.19,0,0,0,.2,9c1,1.84,2.06,3.65,3.14,5.45A91.52,91.52,0,0,0,315.78,134c-2.42-3.89-4.75-7.83-6.95-11.84-.42-.77-.74-1.72-1.86-1.81-1.25,4.15-2.69,8.27-3.73,12.48-3.23,13-7.86,25.34-15.1,36.64A26.47,26.47,0,0,1,284.7,174c-3.67,3.63-7.5,4.25-12.08,1.93s-9.09-4.69-13.68-6.93a12.11,12.11,0,0,0-17.64,9.77c-.79,7.21-1.49,14.42-2.22,21.64-.42,4.17-3.38,6.18-7.41,5-2.85-.85-5.67-1.81-8.5-2.73l-17.84-5.77c-.85-.28-1.67-.5-2.19.48s.22,1.53.88,2.06c.36.29.73.56,1.1.83q18.1,13.26,36.22,26.52c5.56,4.07,11.13,2.19,13.24-4.41,1.63-5.08,3.26-10.16,5-15.22,1-3,3.47-3.89,6.14-2.34a29.82,29.82,0,0,1,12.77,13.64c3.73,8.2,8.22,16,12.74,23.8,1.72,3,3.28,6,4.74,9.14,4.08,8.68,6,18.06,8.7,27.2a84.79,84.79,0,0,0,7.24,18.24c6,10.57,15.87,15.7,26.86,19.25,8.34,2.7,16.95,4.5,25.22,7.42a94,94,0,0,1,24.42,12.85c5.07,3.72,5.76,8.11,2.93,13.68-2.24,4.43-4.55,8.81-6.72,13.27a12.12,12.12,0,0,0,9.53,17.48c7.2.84,14.42,1.52,21.64,2.23,4.58.45,6.57,3.37,5.15,7.79-2,6.17-4,12.33-6,18.48-.79,2.4-1.59,4.78-2.34,7.18-.3.93-.79,2.05.42,2.63s1.71-.59,2.32-1.33c.1-.12.18-.25.27-.37l26.5-36.24c4.36-6,2.57-11.38-4.47-13.64-4.94-1.58-9.87-3.16-14.79-4.79-2.94-1-4.1-3.46-2.69-5.89,3-5.17,6.67-9.65,12.24-12.3,8.34-4,16.49-8.29,24.41-13.06a102.66,102.66,0,0,1,27.64-11.29c5.68-1.46,11.31-3.14,16.9-4.93,14.75-4.73,24.56-14.35,29.24-29.13,1.47-4.65,3-9.29,4.17-14a116.37,116.37,0,0,1,14.53-34.91,27.31,27.31,0,0,1,3.38-4.61c3.67-3.77,7.56-4.45,12.24-2.1s9.08,4.7,13.67,6.93a12.16,12.16,0,0,0,17.7-10c.7-6.91,1.37-13.82,2.14-20.72.62-5.45,3.21-7,8.51-5.31q12.3,4,24.58,8a3.49,3.49,0,0,0,3.25-.09v-.92A20.17,20.17,0,0,0,633,206.84Z"/><path class="cls-1" d="M653.46,388.1q-18.35-13.47-36.73-26.91c-5.85-4.25-11.19-2.37-13.43,4.57-1.61,5-3.21,10-4.9,15-1,2.86-3.34,3.92-5.74,2.51-4.78-2.8-9.33-6-11.72-11.21-6.38-13.94-15.29-26.56-21.22-40.72-1.19.16-1.51,1.2-2,2-1,1.74-2,3.47-3,5.19-1.55-14.29-4.33-26.9-8.63-33.2a33.4,33.4,0,0,0-9.12-8.42,21.92,21.92,0,0,1-.17-15.34c.23-.64.52-1.29,0-1.95a55.26,55.26,0,0,0-21-9.84c-17-4.28-33.32-9.9-48-19.67a23.58,23.58,0,0,1-5.11-3.82c-2.61-3-3-5.93-1.22-9.48s3.63-7,5.41-10.6c3.5-7-.51-14-8.34-14.74-5.7-.53-11.39-1.07-17.08-1.73-2.9-.34-4.24-2.32-3.74-5.17a17.49,17.49,0,0,1,.72-2.41q3.3-10.46,6.62-20.91h-2.29a4.72,4.72,0,0,1-1.16,1.93Q431.35,197.34,421,211.48c-3.25,4.47-1.85,8.87,3.36,10.62,3.9,1.31,7.83,2.52,11.74,3.8,3.21,1,3.8,2.9,2.08,5.74a23.11,23.11,0,0,1-10.91,9.74,208.58,208.58,0,0,0-26.2,13.52,101.89,101.89,0,0,1-27.16,11.24c-6.56,1.71-13.11,3.49-19.5,5.79a1.29,1.29,0,0,0-.74.83c-1.39,4.74-4.05,8.87-6.26,13.22a9.16,9.16,0,0,0,.2,9c1,1.83,2.06,3.65,3.13,5.44a92.75,92.75,0,0,0-14.55,14.81c-2.41-3.88-4.74-7.82-6.95-11.84-.42-.76-.74-1.72-1.85-1.81-1.26,4.16-2.69,8.28-3.74,12.49-3.23,13-7.86,25.33-15.1,36.64a25.85,25.85,0,0,1-3.44,4.56c-3.66,3.63-7.5,4.25-12.08,1.93s-9.08-4.69-13.68-6.93A12.1,12.1,0,0,0,261.73,360c-.8,7.2-1.49,14.42-2.23,21.63-.42,4.17-3.37,6.19-7.41,5-2.85-.86-5.66-1.82-8.49-2.73l-17.85-5.77c-.84-.28-1.66-.51-2.19.47s.23,1.54.89,2.07c.35.29.73.55,1.1.82L261.77,408c5.55,4.07,11.12,2.19,13.23-4.41,1.63-5.08,3.27-10.17,5-15.22,1-3,3.48-3.89,6.15-2.34a29.9,29.9,0,0,1,12.77,13.63,269.11,269.11,0,0,0,12.73,23.81c1.73,3,3.28,6,4.74,9.14,4.08,8.68,6,18.06,8.7,27.19a84.9,84.9,0,0,0,7.24,18.24c6,10.57,15.87,15.7,26.86,19.26,8.34,2.7,16.95,4.5,25.23,7.42a94.07,94.07,0,0,1,24.41,12.85c5.08,3.72,5.76,8.11,2.94,13.68-2.24,4.42-4.56,8.81-6.72,13.27A12.11,12.11,0,0,0,414.55,562c7.2.84,14.42,1.51,21.63,2.22,4.59.46,6.57,3.37,5.15,7.8-2,6.17-4,12.32-6,18.48-.78,2.39-1.58,4.78-2.34,7.18-.29.93-.79,2,.43,2.62s1.7-.58,2.32-1.33c.09-.11.17-.24.26-.37q13.26-18.12,26.5-36.24c4.36-6,2.58-11.37-4.47-13.63-4.93-1.59-9.87-3.17-14.79-4.8-2.94-1-4.1-3.45-2.69-5.89,3-5.17,6.67-9.64,12.24-12.29q12.51-5.94,24.41-13.06a102.34,102.34,0,0,1,27.64-11.29c5.68-1.46,11.31-3.14,16.9-4.93,14.75-4.73,24.56-14.35,29.24-29.13,1.47-4.65,3-9.29,4.18-14a116.09,116.09,0,0,1,14.52-34.91,27.31,27.31,0,0,1,3.38-4.61c3.68-3.78,7.57-4.45,12.24-2.1s9.08,4.69,13.68,6.93a12.16,12.16,0,0,0,17.7-10c.69-6.91,1.36-13.83,2.14-20.73.61-5.44,3.2-7,8.5-5.31,8.2,2.65,16.4,5.29,24.59,8a3.47,3.47,0,0,0,3.24-.09v-.92A17.2,17.2,0,0,0,653.46,388.1Z"/><path class="cls-1" d="M442.85,420q-18.36-13.47-36.73-26.91c-5.85-4.25-11.19-2.37-13.43,4.57-1.61,5-3.22,10-4.91,15-1,2.87-3.33,3.92-5.73,2.52-4.78-2.81-9.34-6-11.73-11.22C364,390,355,377.39,349.1,363.23c-1.18.16-1.5,1.2-2,2q-1.45,2.61-3,5.19c-1.54-14.29-4.33-26.9-8.62-33.2a33.7,33.7,0,0,0-9.12-8.42,21.92,21.92,0,0,1-.18-15.34c.23-.64.53-1.29,0-1.95a55.51,55.51,0,0,0-21-9.84c-17-4.28-33.32-9.89-48-19.66a24.21,24.21,0,0,1-5.11-3.83c-2.6-3-3-5.93-1.22-9.48s3.64-7.05,5.41-10.6c3.51-7-.51-14-8.33-14.74-5.7-.52-11.4-1.07-17.08-1.73-2.9-.34-4.24-2.32-3.75-5.17a19,19,0,0,1,.72-2.41q3.31-10.46,6.62-20.91h-2.29a4.55,4.55,0,0,1-1.16,1.93q-10.34,14.15-20.67,28.29c-3.25,4.48-1.85,8.87,3.36,10.62,3.9,1.31,7.84,2.52,11.75,3.8,3.2,1.05,3.79,2.9,2.08,5.75a23.19,23.19,0,0,1-10.91,9.73,207.22,207.22,0,0,0-26.2,13.52,102.09,102.09,0,0,1-27.17,11.24c-6.56,1.71-13.1,3.5-19.5,5.79a1.35,1.35,0,0,0-.74.83c-1.38,4.74-4,8.87-6.26,13.22a9.16,9.16,0,0,0,.2,9q1.51,2.75,3.14,5.45a91.44,91.44,0,0,0-14.55,14.8c-2.42-3.88-4.75-7.82-7-11.84-.42-.76-.74-1.71-1.86-1.81-1.26,4.16-2.69,8.28-3.74,12.49-3.22,13-7.85,25.33-15.1,36.64a25.85,25.85,0,0,1-3.44,4.56c-3.66,3.63-7.5,4.25-12.08,1.93s-9.08-4.69-13.68-6.93A12.1,12.1,0,0,0,51.11,392c-.79,7.21-1.49,14.42-2.22,21.64-.43,4.16-3.38,6.18-7.42,5-2.84-.85-5.66-1.82-8.49-2.73l-17.84-5.77c-.85-.28-1.67-.5-2.19.48s.22,1.53.88,2.06c.36.29.73.56,1.1.83Q33,426.69,51.15,440c5.55,4.07,11.13,2.19,13.24-4.41,1.63-5.08,3.26-10.16,5-15.22,1-3,3.47-3.89,6.14-2.34a29.82,29.82,0,0,1,12.77,13.64c3.73,8.2,8.22,16,12.74,23.8,1.72,3,3.27,6,4.73,9.14,4.09,8.68,6,18.06,8.71,27.2A84.79,84.79,0,0,0,121.69,510c6,10.56,15.86,15.69,26.86,19.25,8.34,2.7,16.95,4.5,25.22,7.42a94,94,0,0,1,24.42,12.85c5.07,3.72,5.76,8.11,2.93,13.68-2.24,4.43-4.55,8.81-6.72,13.27A12.12,12.12,0,0,0,203.93,594c7.2.84,14.42,1.51,21.64,2.23,4.58.45,6.57,3.37,5.15,7.79-2,6.17-4,12.32-6,18.48-.78,2.39-1.58,4.78-2.34,7.18-.29.93-.78,2,.43,2.63s1.71-.59,2.32-1.33c.1-.12.18-.25.27-.38q13.24-18.1,26.5-36.24c4.36-6,2.57-11.37-4.47-13.63-4.94-1.59-9.88-3.16-14.8-4.8-2.94-1-4.09-3.45-2.69-5.89,3-5.16,6.68-9.64,12.25-12.29,8.34-4,16.49-8.29,24.4-13.06a102.72,102.72,0,0,1,27.65-11.29c5.68-1.46,11.3-3.14,16.9-4.93,14.74-4.73,24.55-14.35,29.23-29.13,1.47-4.65,3-9.29,4.18-14A116.37,116.37,0,0,1,359,450.36a27.31,27.31,0,0,1,3.38-4.61c3.67-3.77,7.56-4.45,12.23-2.1s9.09,4.7,13.68,6.93a12.16,12.16,0,0,0,17.7-10c.69-6.91,1.37-13.82,2.14-20.73.61-5.44,3.2-7,8.51-5.31,8.2,2.65,16.4,5.29,24.58,8a3.49,3.49,0,0,0,3.25-.09v-.92A20,20,0,0,0,442.85,420Z"/><path class="cls-2" d="M252.91,72.81a83,83,0,0,1,.26-9.33c0-.9.3-1.65,1.24-1.86s1.48.55,1.78,1.32c1.1,2.82,2.25,5.63,3.2,8.51A3.28,3.28,0,0,0,263,74c2.15-.07,4.3,0,6.45.08a5,5,0,0,1,5.06,4.69A20.84,20.84,0,0,1,271,93.6c-1.8,2.57-3.39,2.48-5-.25a16.62,16.62,0,0,1-2.18-6.24,4.18,4.18,0,0,0-3.57-3.92c-8.21-1.87-6.78-1.64-7.32-9.27C252.89,73.56,252.91,73.18,252.91,72.81Z"/><path class="cls-2" d="M50.15,306.68a20.85,20.85,0,0,1,12.46,3.81q3.58,2.61-.2,5a16.54,16.54,0,0,1-6.63,2.35c-2.37.31-3.54,1.58-4.07,3.92-1.84,8.09-1.69,6.8-9.27,7.3a71.39,71.39,0,0,1-10.74-.25c-1-.09-1.9-.24-2.07-1.36s.64-1.49,1.45-1.8c2.69-1.05,5.36-2.21,8.11-3.06,2.23-.69,3.33-1.81,3.15-4.26a40.39,40.39,0,0,1,.16-5.71c.29-4.07,2-5.68,6-5.89C49.08,306.66,49.62,306.68,50.15,306.68Z"/><path class="cls-2" d="M329.27,618.87c-.13,2.52-.28,5-.39,7.55,0,1-.24,1.86-1.29,2.06s-1.52-.74-1.84-1.57c-1-2.54-2.12-5.06-2.89-7.68-.67-2.28-1.83-3.36-4.29-3.15A39.59,39.59,0,0,1,313,616c-3.49-.2-5.29-2-5.56-5.4A21,21,0,0,1,311,596.46c1.77-2.51,3.33-2.45,4.92.12a17.24,17.24,0,0,1,2.34,6.66,4.05,4.05,0,0,0,3.53,3.67c8.16,1.91,6.8,1.71,7.3,8.85.07,1,0,2.07,0,3.11Z"/><path class="cls-2" d="M102.47,106.68c0,2.41-1.18,3.42-3.13,3a17.86,17.86,0,0,1-7.22-3.29c-1.79-1.36-3.41-1.23-5.24-.07-6.47,4.11-6.1,4.28-11.86-1.31a102.84,102.84,0,0,1-7.46-7.74c-.61-.72-1.26-1.47-.61-2.42s1.59-.61,2.45-.22c2.71,1.23,5.48,2.32,8.1,3.7a3.55,3.55,0,0,0,4.86-.84c1.44-1.57,3-3,4.6-4.45,1.74-1.59,3.85-2.23,5.89-1A20.67,20.67,0,0,1,102.47,106.68Z"/><path class="cls-2" d="M67.94,578.48c2.08,0,2.94,1.15,2.59,3.06a15.81,15.81,0,0,1-3,6.64c-1.46,1.94-1.38,3.71-.08,5.7,4.32,6.58,3.23,6.13-1.08,10.86a81.32,81.32,0,0,1-7.82,7.6c-.69.58-1.38,1.28-2.35.68s-.63-1.7-.25-2.57c1.11-2.58,2.14-5.21,3.47-7.69a3.52,3.52,0,0,0-.85-4.89c-1.53-1.4-2.92-3-4.32-4.49s-2.08-3.64-.86-5.53A20,20,0,0,1,67.94,578.48Z"/><path class="cls-2" d="M583.53,490.21c0-1.88,1.18-2.89,3.17-2.5a16.34,16.34,0,0,1,6.84,3,4.53,4.53,0,0,0,5.83.18c6.21-3.94,5.87-4.1,11.32,1.15,2.64,2.53,5.25,5.1,7.66,7.86.66.76,1.42,1.57.7,2.62s-1.8.49-2.67.11c-2.79-1.22-5.58-2.44-8.3-3.8a3.12,3.12,0,0,0-4.1.68q-2.31,2.37-4.76,4.61c-2.44,2.23-4.84,2.3-7.41.31C587.35,501,583.6,494.58,583.53,490.21Z"/><path class="cls-2" d="M622.79,273.48a68.16,68.16,0,0,1,8.69.3c.94.12,1.68.4,1.8,1.4s-.57,1.38-1.3,1.67c-2.91,1.14-5.79,2.36-8.76,3.31a3.29,3.29,0,0,0-2.64,3.67c0,2.36-.07,4.73-.26,7.09a4.56,4.56,0,0,1-4.05,4.56A20.41,20.41,0,0,1,600,291.83c-2.07-1.5-2-3.14.11-4.56a17.25,17.25,0,0,1,7.24-2.65c2.22-.34,3.24-1.57,3.74-3.69,1.75-7.37,1.8-7.36,9.39-7.45Z"/><path class="cls-2" d="M542.56,86.91c-1.52-.1-2.16-1.2-1.91-2.92a14.58,14.58,0,0,1,2.93-6.87c1.63-2.12,1.65-4,.21-6.24-3.69-5.83-3.63-5.88,1.13-11A90.76,90.76,0,0,1,553.14,52c.7-.59,1.42-1.29,2.4-.55s.57,1.65.21,2.48c-1.18,2.72-2.28,5.5-3.67,8.11a3.5,3.5,0,0,0,.84,4.83,64.9,64.9,0,0,1,4.58,4.8,4.79,4.79,0,0,1,.89,5.51C556.33,81.7,547.87,87,542.56,86.91Z"/></g></g></svg>